<svg width="14" height="14" viewBox="0 0 14 14" fill="none" xmlns="http://www.w3.org/2000/svg">
<path d="M11.1906 4.55294L9.46101 2.82219C8.27859 1.63802 7.68768 1.0471 7.05243 1.1871C6.41718 1.3271 6.13018 2.11285 5.55443 3.68377L5.16476 4.74719C5.01134 5.16602 4.93434 5.37544 4.79609 5.5376C4.73429 5.61052 4.66376 5.67556 4.58609 5.73127C4.41343 5.85552 4.19876 5.91444 3.76943 6.03285C2.80109 6.30002 2.31634 6.4336 2.13376 6.75035C2.05483 6.88746 2.01376 7.04308 2.01476 7.20127C2.0171 7.56702 2.37234 7.92227 3.08226 8.63335L3.90826 9.45935L1.29726 12.0727C1.2177 12.157 1.17414 12.2691 1.17583 12.385C1.17752 12.5009 1.22433 12.6116 1.30631 12.6936C1.3883 12.7756 1.49902 12.8224 1.61495 12.8241C1.73089 12.8258 1.84292 12.7822 1.92726 12.7027L4.53768 10.0894L5.39284 10.9457C6.10801 11.6609 6.46559 12.019 6.83368 12.019C6.98826 12.019 7.14051 11.9794 7.27526 11.9024C7.59493 11.7198 7.72909 11.2321 7.99801 10.2562C8.11584 9.82744 8.17476 9.61335 8.29843 9.4401C8.35287 9.36466 8.41548 9.29622 8.48626 9.23477C8.64668 9.09594 8.85493 9.01777 9.27084 8.86144L10.3465 8.45719C11.9005 7.87385 12.6775 7.5816 12.814 6.94869C12.9511 6.31519 12.3648 5.72777 11.1906 4.55294Z" fill="#B3B3B3"/>
</svg>
